<?xml version="1.0" ?>
<!DOCTYPE svg  PUBLIC '-//W3C//DTD SVG 20010904//EN'  'http://www.w3.org/TR/2001/REC-SVG-20010904/DTD/svg10.dtd'>
<svg height="1024.000000px" preserveAspectRatio="xMidYMid meet" version="1.0" viewBox="0 0 512.000000 1024.000000" width="512.000000px" xmlns="http://www.w3.org/2000/svg">
<g fill="#707070" stroke="none" transform="translate(0.000000,512.000000) scale(0.100000,-0.100000)">
<path d="M2285 4898 c-311 -35 -683 -165 -955 -333 -220 -137 -472 -361 -622 -555 -256 -331 -417 -712 -480 -1135 -20 -136 -17 -512 5 -655 103 -665 471 -1245 1027 -1616 287 -191 623 -320 966 -371 164 -24 504 -24 668 0 411 61 815 237 1136 494 459 368 764 897 857 1485 25 159 25 537 0 696 -83 524 -329 995 -708 1356 -370 352 -861 581 -1361 635 -114 13 -419 12 -533 -1z m350 -472 c19 -8 49 -30 67 -48 39 -38 788 -1199 788 -1220 0 -4 -18 -131 -40 -281 -22 -149 -65 -441 -96 -647 -30 -206 -70 -482 -90 -613 -22 -149 -42 -252 -53 -275 -11 -21 -30 -112 -46 -217 -32 -215 -49 -256 -137 -320 -81 -60 -164 -90 -308 -110 -146 -21 -274 -16 -396 15 -81 21 -234 88 -234 103 0 5 -24 34 -54 65 -29 31 -56 66 -59 77 -4 11 -16 96 -28 190 -18 141 -25 174 -43 196 -19 22 -28 69 -64 320 -24 162 -58 398 -77 524 -95 648 -135 928 -135 951 0 23 156 260 561 854 54 80 98 148 99 152 0 17 151 242 172 257 59 42 115 51 173 27z"/>
<path d="M2752 3874 c-111 -51 -279 -54 -370 -8 -26 13 -50 24 -53 24 -4 0 -89 -127 -190 -282 -100 -156 -185 -285 -189 -288 -16 -11 -81 -122 -76 -128 4 -3 43 -16 89 -29 91 -27 189 -77 254 -130 l43 -34 71 26 c133 48 243 42 435 -24 l81 -28 54 44 c68 56 194 117 284 140 39 10 72 19 74 20 5 3 -446 724 -452 722 -1 0 -26 -12 -55 -25z"/>
<path d="M1840 3013 c0 -5 52 -363 114 -796 80 -548 119 -794 129 -805 9 -10 17 -28 19 -41 3 -23 124 -138 134 -128 3 2 -7 224 -20 493 -14 269 -33 631 -42 804 l-16 315 -31 28 c-46 40 -142 92 -216 116 -73 24 -71 23 -71 14z"/>
<path d="M3198 2986 c-73 -26 -116 -50 -195 -109 l-53 -39 -1 -62 c0 -33 -17 -392 -38 -796 -21 -404 -37 -736 -35 -738 11 -15 141 88 141 112 0 8 9 34 21 58 17 34 43 195 127 788 58 410 108 760 111 778 4 17 2 32 -2 32 -5 0 -39 -11 -76 -24z"/>
<path d="M2451 2880 c-18 -4 -51 -16 -73 -26 l-41 -18 7 -141 c3 -77 11 -234 17 -350 6 -115 20 -419 33 -675 12 -256 25 -471 30 -478 5 -8 46 -12 140 -12 l133 0 7 88 c3 48 13 215 21 372 22 413 53 981 60 1083 l7 87 -57 26 c-61 26 -179 55 -223 53 -15 -1 -42 -5 -61 -9z"/>
<path d="M2144 1059 c8 -49 52 -105 103 -132 48 -25 164 -53 254 -61 115 -11 297 17 370 56 80 42 101 67 107 128 l5 52 -64 -32 c-35 -17 -78 -38 -95 -47 -26 -14 -65 -15 -275 -11 -153 3 -252 9 -264 16 -11 6 -49 25 -84 43 l-64 31 7 -43z"/>
</g>
<g fill="#f44f37" stroke="none" transform="translate(0.000000, 1024.000000) scale(0.100000,-0.100000)">
<path d="M2285 4898 c-311 -35 -683 -165 -955 -333 -220 -137 -472 -361 -622 -555 -256 -331 -417 -712 -480 -1135 -20 -136 -17 -512 5 -655 103 -665 471 -1245 1027 -1616 287 -191 623 -320 966 -371 164 -24 504 -24 668 0 411 61 815 237 1136 494 459 368 764 897 857 1485 25 159 25 537 0 696 -83 524 -329 995 -708 1356 -370 352 -861 581 -1361 635 -114 13 -419 12 -533 -1z m350 -472 c19 -8 49 -30 67 -48 39 -38 788 -1199 788 -1220 0 -4 -18 -131 -40 -281 -22 -149 -65 -441 -96 -647 -30 -206 -70 -482 -90 -613 -22 -149 -42 -252 -53 -275 -11 -21 -30 -112 -46 -217 -32 -215 -49 -256 -137 -320 -81 -60 -164 -90 -308 -110 -146 -21 -274 -16 -396 15 -81 21 -234 88 -234 103 0 5 -24 34 -54 65 -29 31 -56 66 -59 77 -4 11 -16 96 -28 190 -18 141 -25 174 -43 196 -19 22 -28 69 -64 320 -24 162 -58 398 -77 524 -95 648 -135 928 -135 951 0 23 156 260 561 854 54 80 98 148 99 152 0 17 151 242 172 257 59 42 115 51 173 27z"/>
<path d="M2752 3874 c-111 -51 -279 -54 -370 -8 -26 13 -50 24 -53 24 -4 0 -89 -127 -190 -282 -100 -156 -185 -285 -189 -288 -16 -11 -81 -122 -76 -128 4 -3 43 -16 89 -29 91 -27 189 -77 254 -130 l43 -34 71 26 c133 48 243 42 435 -24 l81 -28 54 44 c68 56 194 117 284 140 39 10 72 19 74 20 5 3 -446 724 -452 722 -1 0 -26 -12 -55 -25z"/>
<path d="M1840 3013 c0 -5 52 -363 114 -796 80 -548 119 -794 129 -805 9 -10 17 -28 19 -41 3 -23 124 -138 134 -128 3 2 -7 224 -20 493 -14 269 -33 631 -42 804 l-16 315 -31 28 c-46 40 -142 92 -216 116 -73 24 -71 23 -71 14z"/>
<path d="M3198 2986 c-73 -26 -116 -50 -195 -109 l-53 -39 -1 -62 c0 -33 -17 -392 -38 -796 -21 -404 -37 -736 -35 -738 11 -15 141 88 141 112 0 8 9 34 21 58 17 34 43 195 127 788 58 410 108 760 111 778 4 17 2 32 -2 32 -5 0 -39 -11 -76 -24z"/>
<path d="M2451 2880 c-18 -4 -51 -16 -73 -26 l-41 -18 7 -141 c3 -77 11 -234 17 -350 6 -115 20 -419 33 -675 12 -256 25 -471 30 -478 5 -8 46 -12 140 -12 l133 0 7 88 c3 48 13 215 21 372 22 413 53 981 60 1083 l7 87 -57 26 c-61 26 -179 55 -223 53 -15 -1 -42 -5 -61 -9z"/>
<path d="M2144 1059 c8 -49 52 -105 103 -132 48 -25 164 -53 254 -61 115 -11 297 17 370 56 80 42 101 67 107 128 l5 52 -64 -32 c-35 -17 -78 -38 -95 -47 -26 -14 -65 -15 -275 -11 -153 3 -252 9 -264 16 -11 6 -49 25 -84 43 l-64 31 7 -43z"/>
</g>
</svg>