<?xml version="1.0" ?><!DOCTYPE svg  PUBLIC '-//W3C//DTD SVG 20010904//EN'  'http://www.w3.org/TR/2001/REC-SVG-20010904/DTD/svg10.dtd'>
<svg height="1024.000000px" version="1.0" viewBox="0 0 512.000000 1024.000000" width="512.000000px" xmlns="http://www.w3.org/2000/svg">
  <g fill="#707070" stroke="none" transform="translate(0.000000,512.000000) scale(0.100000,-0.100000)"><path d="M2285 4898 c-311 -35 -683 -165 -955 -333 -220 -137 -472 -361 -622 -555 -256 -331 -417 -712 -480 -1135 -20 -136 -17 -512 5 -655 103 -665 471 -1245 1027 -1616 287 -191 623 -320 966 -371 164 -24 504 -24 668 0 411 61 815 237 1136 494 459 368 764 897 857 1485 25 159 25 537 0 696 -83 524 -329 995 -708 1356 -370 352 -861 581 -1361 635 -114 13 -419 12 -533 -1z m918 -1254 l628 -627 -3 -911 -3 -911 -24 -47 c-34 -67 -95 -126 -160 -157 l-56 -26 -722 -3 c-499 -2 -723 1 -723 8 0 6 32 69 71 140 l71 130 622 0 c470 0 625 3 634 12 9 9 12 222 12 895 l0 883 -372 0 c-345 0 -376 2 -415 19 -61 28 -127 94 -154 154 -24 51 -24 58 -27 420 l-3 367 -447 -2 -447 -3 -3 -1137 c-1 -626 -3 -1138 -5 -1138 -8 0 -115 45 -189 79 l-88 40 0 1103 c0 1063 1 1105 19 1145 30 64 98 132 166 164 l60 29 465 0 465 0 628 -626z m-379 -1116 c-39 -77 -266 -490 -298 -544 -20 -33 -36 -62 -36 -67 0 -4 -27 -54 -60 -111 -33 -57 -60 -108 -60 -111 0 -4 -15 -33 -34 -64 -18 -31 -50 -87 -71 -126 -38 -71 -115 -213 -210 -385 -29 -52 -68 -124 -88 -160 -42 -77 -67 -109 -73 -95 -2 6 -46 69 -96 140 -50 72 -150 213 -220 314 -71 101 -143 202 -159 225 -80 109 -120 168 -117 171 2 2 23 -7 48 -19 25 -12 77 -35 115 -50 71 -29 110 -46 225 -98 36 -17 89 -39 119 -50 l55 -21 19 24 c10 13 54 62 96 109 42 46 94 105 117 130 22 25 92 101 155 170 62 69 143 159 179 199 36 41 92 104 126 140 34 36 110 121 169 189 60 67 110 122 112 122 2 0 -4 -15 -13 -32z m-1262 -1433 c43 -60 73 -112 68 -113 -19 -7 -98 39 -137 79 -57 57 -86 121 -91 199 l-4 65 43 -60 c24 -33 79 -109 121 -170z"/></g>
  <g fill="#f44f37" stroke="none" transform="translate(0.000000,1024.000000) scale(0.100000,-0.100000)"><path d="M2285 4898 c-311 -35 -683 -165 -955 -333 -220 -137 -472 -361 -622 -555 -256 -331 -417 -712 -480 -1135 -20 -136 -17 -512 5 -655 103 -665 471 -1245 1027 -1616 287 -191 623 -320 966 -371 164 -24 504 -24 668 0 411 61 815 237 1136 494 459 368 764 897 857 1485 25 159 25 537 0 696 -83 524 -329 995 -708 1356 -370 352 -861 581 -1361 635 -114 13 -419 12 -533 -1z m918 -1254 l628 -627 -3 -911 -3 -911 -24 -47 c-34 -67 -95 -126 -160 -157 l-56 -26 -722 -3 c-499 -2 -723 1 -723 8 0 6 32 69 71 140 l71 130 622 0 c470 0 625 3 634 12 9 9 12 222 12 895 l0 883 -372 0 c-345 0 -376 2 -415 19 -61 28 -127 94 -154 154 -24 51 -24 58 -27 420 l-3 367 -447 -2 -447 -3 -3 -1137 c-1 -626 -3 -1138 -5 -1138 -8 0 -115 45 -189 79 l-88 40 0 1103 c0 1063 1 1105 19 1145 30 64 98 132 166 164 l60 29 465 0 465 0 628 -626z m-379 -1116 c-39 -77 -266 -490 -298 -544 -20 -33 -36 -62 -36 -67 0 -4 -27 -54 -60 -111 -33 -57 -60 -108 -60 -111 0 -4 -15 -33 -34 -64 -18 -31 -50 -87 -71 -126 -38 -71 -115 -213 -210 -385 -29 -52 -68 -124 -88 -160 -42 -77 -67 -109 -73 -95 -2 6 -46 69 -96 140 -50 72 -150 213 -220 314 -71 101 -143 202 -159 225 -80 109 -120 168 -117 171 2 2 23 -7 48 -19 25 -12 77 -35 115 -50 71 -29 110 -46 225 -98 36 -17 89 -39 119 -50 l55 -21 19 24 c10 13 54 62 96 109 42 46 94 105 117 130 22 25 92 101 155 170 62 69 143 159 179 199 36 41 92 104 126 140 34 36 110 121 169 189 60 67 110 122 112 122 2 0 -4 -15 -13 -32z m-1262 -1433 c43 -60 73 -112 68 -113 -19 -7 -98 39 -137 79 -57 57 -86 121 -91 199 l-4 65 43 -60 c24 -33 79 -109 121 -170z"/></g>
</svg>