<?xml version="1.0" ?><!DOCTYPE svg  PUBLIC '-//W3C//DTD SVG 20010904//EN'  'http://www.w3.org/TR/2001/REC-SVG-20010904/DTD/svg10.dtd'>
<svg height="1024.000000px"  version="1.0" viewBox="0 0 512.000000 1024.000000" width="512px" xmlns="http://www.w3.org/2000/svg">
<g fill="#707070" stroke="none" transform="translate(0.000000,512.000000) scale(0.100000,-0.100000)"><path d="M2285 4898 c-311 -35 -683 -165 -955 -333 -220 -137 -472 -361 -622 -555 -256 -331 -417 -712 -480 -1135 -20 -136 -17 -512 5 -655 103 -665 471 -1245 1027 -1616 287 -191 623 -320 966 -371 164 -24 504 -24 668 0 411 61 815 237 1136 494 459 368 764 897 857 1485 25 159 25 537 0 696 -83 524 -329 995 -708 1356 -370 352 -861 581 -1361 635 -114 13 -419 12 -533 -1z m1297 -1398 l569 -571 -3 -832 c-3 -944 4 -865 -89 -957 -58 -58 -122 -80 -229 -80 -65 0 -79 3 -85 18 -4 9 -24 65 -46 125 l-38 107 107 0 c71 0 112 4 120 12 9 9 12 203 12 809 l0 798 -337 3 -338 3 -52 28 c-60 31 -127 109 -143 165 -6 22 -10 166 -10 349 0 171 -3 318 -6 327 -5 14 -50 16 -394 16 -214 0 -395 -3 -404 -6 -14 -5 -16 -45 -16 -340 0 -184 -3 -334 -6 -334 -3 0 -40 33 -82 74 -42 40 -98 93 -124 116 l-48 43 0 208 c0 114 5 232 11 261 21 103 77 170 176 208 44 18 81 19 467 20 l419 0 569 -570z m-1982 60 c54 -48 208 -198 214 -208 6 -11 -60 -84 -431 -476 -92 -96 -95 -98 -112 -80 -10 11 -82 79 -159 152 l-141 133 11 32 c49 142 266 385 434 485 l88 52 39 -37 c22 -21 48 -45 57 -53z m398 -372 c42 -40 113 -108 157 -150 l79 -76 -49 -54 c-27 -29 -113 -120 -191 -203 -78 -82 -176 -186 -217 -230 l-75 -80 -24 20 c-98 84 -288 271 -286 281 2 8 73 87 159 176 85 90 202 214 260 275 57 62 105 113 107 113 1 0 37 -33 80 -72z m468 -443 c241 -226 316 -298 409 -386 49 -47 119 -113 154 -145 35 -32 113 -106 173 -164 l109 -105 -183 -194 c-101 -107 -221 -234 -268 -283 l-85 -90 -105 99 c-200 187 -475 447 -560 527 -47 45 -138 130 -203 190 -64 61 -117 113 -117 116 0 7 18 26 205 225 72 77 174 186 226 243 51 56 97 101 100 100 4 -2 69 -61 145 -133z m-390 -841 l124 -116 2 -236 3 -237 215 -5 215 -5 160 -49 c226 -68 402 -120 534 -158 l115 -33 -624 -3 c-728 -3 -698 -6 -789 86 -32 32 -63 74 -71 97 -11 31 -15 125 -17 408 -2 202 -1 367 3 367 4 0 62 -52 130 -116z m1328 -86 c25 -71 112 -311 135 -373 55 -144 131 -368 128 -372 -3 -2 -76 17 -163 43 -269 79 -344 101 -494 144 -80 23 -148 45 -152 49 -3 3 35 49 85 102 179 186 372 391 402 425 16 19 32 34 35 34 3 0 14 -24 24 -52z"/>
</g>

<g fill="#f44f37" stroke="none" transform="translate(0.000000,1024.000000) scale(0.100000,-0.100000)"><path d="M2285 4898 c-311 -35 -683 -165 -955 -333 -220 -137 -472 -361 -622 -555 -256 -331 -417 -712 -480 -1135 -20 -136 -17 -512 5 -655 103 -665 471 -1245 1027 -1616 287 -191 623 -320 966 -371 164 -24 504 -24 668 0 411 61 815 237 1136 494 459 368 764 897 857 1485 25 159 25 537 0 696 -83 524 -329 995 -708 1356 -370 352 -861 581 -1361 635 -114 13 -419 12 -533 -1z m1297 -1398 l569 -571 -3 -832 c-3 -944 4 -865 -89 -957 -58 -58 -122 -80 -229 -80 -65 0 -79 3 -85 18 -4 9 -24 65 -46 125 l-38 107 107 0 c71 0 112 4 120 12 9 9 12 203 12 809 l0 798 -337 3 -338 3 -52 28 c-60 31 -127 109 -143 165 -6 22 -10 166 -10 349 0 171 -3 318 -6 327 -5 14 -50 16 -394 16 -214 0 -395 -3 -404 -6 -14 -5 -16 -45 -16 -340 0 -184 -3 -334 -6 -334 -3 0 -40 33 -82 74 -42 40 -98 93 -124 116 l-48 43 0 208 c0 114 5 232 11 261 21 103 77 170 176 208 44 18 81 19 467 20 l419 0 569 -570z m-1982 60 c54 -48 208 -198 214 -208 6 -11 -60 -84 -431 -476 -92 -96 -95 -98 -112 -80 -10 11 -82 79 -159 152 l-141 133 11 32 c49 142 266 385 434 485 l88 52 39 -37 c22 -21 48 -45 57 -53z m398 -372 c42 -40 113 -108 157 -150 l79 -76 -49 -54 c-27 -29 -113 -120 -191 -203 -78 -82 -176 -186 -217 -230 l-75 -80 -24 20 c-98 84 -288 271 -286 281 2 8 73 87 159 176 85 90 202 214 260 275 57 62 105 113 107 113 1 0 37 -33 80 -72z m468 -443 c241 -226 316 -298 409 -386 49 -47 119 -113 154 -145 35 -32 113 -106 173 -164 l109 -105 -183 -194 c-101 -107 -221 -234 -268 -283 l-85 -90 -105 99 c-200 187 -475 447 -560 527 -47 45 -138 130 -203 190 -64 61 -117 113 -117 116 0 7 18 26 205 225 72 77 174 186 226 243 51 56 97 101 100 100 4 -2 69 -61 145 -133z m-390 -841 l124 -116 2 -236 3 -237 215 -5 215 -5 160 -49 c226 -68 402 -120 534 -158 l115 -33 -624 -3 c-728 -3 -698 -6 -789 86 -32 32 -63 74 -71 97 -11 31 -15 125 -17 408 -2 202 -1 367 3 367 4 0 62 -52 130 -116z m1328 -86 c25 -71 112 -311 135 -373 55 -144 131 -368 128 -372 -3 -2 -76 17 -163 43 -269 79 -344 101 -494 144 -80 23 -148 45 -152 49 -3 3 35 49 85 102 179 186 372 391 402 425 16 19 32 34 35 34 3 0 14 -24 24 -52z"/>
</g>
</svg>