<?xml version="1.0" ?>
<!DOCTYPE svg  PUBLIC '-//W3C//DTD SVG 20010904//EN'  'http://www.w3.org/TR/2001/REC-SVG-20010904/DTD/svg10.dtd'>
<svg height="512px" preserveAspectRatio="xMidYMid meet" version="1.0" viewBox="0 0 512.000000 1024.000000" width="512px" xmlns="http://www.w3.org/2000/svg">
<g fill="#707070" stroke="none" transform="translate(0.000000,512.000000) scale(0.100000,-0.100000)">
<path d="M2285 4898 c-311 -35 -683 -165 -955 -333 -220 -137 -472 -361 -622 -555 -256 -331 -417 -712 -480 -1135 -20 -136 -17 -512 5 -655 103 -665 471 -1245 1027 -1616 287 -191 623 -320 966 -371 164 -24 504 -24 668 0 411 61 815 237 1136 494 459 368 764 897 857 1485 25 159 25 537 0 696 -83 524 -329 995 -708 1356 -370 352 -861 581 -1361 635 -114 13 -419 12 -533 -1z m880 -845 c94 -91 251 -245 350 -341 99 -97 228 -222 286 -279 l107 -104 3 -1002 c4 -928 3 -1006 -13 -1058 -63 -202 -173 -307 -371 -354 -52 -12 -206 -15 -968 -15 -860 0 -910 1 -981 19 -195 50 -293 146 -355 346 -17 57 -18 123 -18 1295 0 966 3 1245 13 1283 25 95 71 178 131 237 64 63 102 84 211 116 75 23 79 23 755 23 l680 1 170 -167z"/><path d="M1646 3890 c-63 -25 -89 -50 -118 -113 l-23 -52 0 -1160 c0 -1114 1 -1162 19 -1208 22 -55 79 -110 133 -128 50 -17 1641 -25 1748 -9 91 14 141 47 178 119 l27 55 0 846 0 847 -82 6 c-46 3 -141 15 -213 27 -173 29 -246 63 -340 157 l-71 70 -39 154 c-32 128 -40 176 -43 282 l-4 127 -562 0 c-528 -1 -564 -2 -610 -20z m893 -465 c42 -21 54 -34 74 -78 l23 -52 -22 -55 c-18 -46 -29 -59 -65 -77 -42 -21 -55 -22 -356 -22 -302 -1 -314 0 -357 21 -37 18 -50 32 -72 77 l-26 55 26 51 c20 36 40 58 74 77 l47 27 302 1 301 0 51 -25z m687 -526 c42 -24 58 -40 75 -77 20 -47 20 -47 2 -102 -18 -50 -24 -57 -74 -82 l-54 -27 -640 -1 -640 0 -52 24 c-45 21 -55 32 -78 80 l-26 55 25 49 c19 38 38 57 78 81 l53 31 639 0 639 0 53 -31z m-2 -526 c49 -24 58 -33 77 -80 l21 -53 -24 -56 c-22 -51 -29 -58 -73 -75 -47 -18 -88 -19 -690 -19 -753 0 -717 -4 -767 93 l-29 59 26 53 c22 43 36 57 79 78 l51 26 637 1 638 0 54 -27z m-6 -522 c49 -25 61 -37 81 -79 l24 -51 -22 -59 c-22 -58 -24 -61 -80 -81 -57 -21 -72 -21 -692 -21 l-634 0 -52 25 c-46 21 -56 31 -79 78 l-25 55 25 50 c20 39 37 57 78 80 l53 30 633 1 633 1 57 -29z"/><path d="M3050 3903 c1 -42 33 -221 48 -269 34 -109 118 -187 272 -254 62 -26 92 -33 170 -37 l95 -5 -285 286 c-157 157 -288 286 -292 286 -5 0 -8 -3 -8 -7z"/>
</g>
<g fill="#f44f37" stroke="none" transform="translate(0.000000,1024.000000) scale(0.100000,-0.100000)">
<path d="M2285 4898 c-311 -35 -683 -165 -955 -333 -220 -137 -472 -361 -622 -555 -256 -331 -417 -712 -480 -1135 -20 -136 -17 -512 5 -655 103 -665 471 -1245 1027 -1616 287 -191 623 -320 966 -371 164 -24 504 -24 668 0 411 61 815 237 1136 494 459 368 764 897 857 1485 25 159 25 537 0 696 -83 524 -329 995 -708 1356 -370 352 -861 581 -1361 635 -114 13 -419 12 -533 -1z m880 -845 c94 -91 251 -245 350 -341 99 -97 228 -222 286 -279 l107 -104 3 -1002 c4 -928 3 -1006 -13 -1058 -63 -202 -173 -307 -371 -354 -52 -12 -206 -15 -968 -15 -860 0 -910 1 -981 19 -195 50 -293 146 -355 346 -17 57 -18 123 -18 1295 0 966 3 1245 13 1283 25 95 71 178 131 237 64 63 102 84 211 116 75 23 79 23 755 23 l680 1 170 -167z"/><path d="M1646 3890 c-63 -25 -89 -50 -118 -113 l-23 -52 0 -1160 c0 -1114 1 -1162 19 -1208 22 -55 79 -110 133 -128 50 -17 1641 -25 1748 -9 91 14 141 47 178 119 l27 55 0 846 0 847 -82 6 c-46 3 -141 15 -213 27 -173 29 -246 63 -340 157 l-71 70 -39 154 c-32 128 -40 176 -43 282 l-4 127 -562 0 c-528 -1 -564 -2 -610 -20z m893 -465 c42 -21 54 -34 74 -78 l23 -52 -22 -55 c-18 -46 -29 -59 -65 -77 -42 -21 -55 -22 -356 -22 -302 -1 -314 0 -357 21 -37 18 -50 32 -72 77 l-26 55 26 51 c20 36 40 58 74 77 l47 27 302 1 301 0 51 -25z m687 -526 c42 -24 58 -40 75 -77 20 -47 20 -47 2 -102 -18 -50 -24 -57 -74 -82 l-54 -27 -640 -1 -640 0 -52 24 c-45 21 -55 32 -78 80 l-26 55 25 49 c19 38 38 57 78 81 l53 31 639 0 639 0 53 -31z m-2 -526 c49 -24 58 -33 77 -80 l21 -53 -24 -56 c-22 -51 -29 -58 -73 -75 -47 -18 -88 -19 -690 -19 -753 0 -717 -4 -767 93 l-29 59 26 53 c22 43 36 57 79 78 l51 26 637 1 638 0 54 -27z m-6 -522 c49 -25 61 -37 81 -79 l24 -51 -22 -59 c-22 -58 -24 -61 -80 -81 -57 -21 -72 -21 -692 -21 l-634 0 -52 25 c-46 21 -56 31 -79 78 l-25 55 25 50 c20 39 37 57 78 80 l53 30 633 1 633 1 57 -29z"/><path d="M3050 3903 c1 -42 33 -221 48 -269 34 -109 118 -187 272 -254 62 -26 92 -33 170 -37 l95 -5 -285 286 c-157 157 -288 286 -292 286 -5 0 -8 -3 -8 -7z"/>
</g>

</svg>