<?xml version="1.0" ?><!DOCTYPE svg  PUBLIC '-//W3C//DTD SVG 20010904//EN'  'http://www.w3.org/TR/2001/REC-SVG-20010904/DTD/svg10.dtd'>
<svg height="1024.000000px" version="1.0" viewBox="0 0 512.000000 1024.000000" width="512.000000px" xmlns="http://www.w3.org/2000/svg">
<g fill="#707070" stroke="none" transform="translate(0.000000,512.000000) scale(0.100000,-0.100000)"><path d="M2285 4898 c-311 -35 -683 -165 -955 -333 -220 -137 -472 -361 -622 -555 -256 -331 -417 -712 -480 -1135 -20 -136 -17 -512 5 -655 103 -665 471 -1245 1027 -1616 287 -191 623 -320 966 -371 164 -24 504 -24 668 0 411 61 815 237 1136 494 459 368 764 897 857 1485 25 159 25 537 0 696 -83 524 -329 995 -708 1356 -370 352 -861 581 -1361 635 -114 13 -419 12 -533 -1z m312 -488 c6 0 25 -14 42 -31 l31 -31 0 -185 0 -186 -40 -38 c-31 -30 -40 -46 -40 -72 0 -32 1 -33 62 -46 89 -18 165 -60 229 -128 67 -70 94 -119 115 -210 29 -122 4 -247 -71 -360 l-35 -53 90 -338 c50 -185 93 -345 96 -354 5 -16 21 -18 144 -18 l138 0 30 30 c22 22 40 30 65 30 77 0 118 -100 62 -155 -34 -35 -93 -34 -125 0 -23 24 -27 25 -158 25 l-134 0 6 -27 c4 -16 59 -220 122 -455 63 -235 114 -446 114 -467 0 -22 -5 -51 -11 -64 -9 -20 -3 -56 35 -197 25 -95 46 -180 46 -190 0 -9 -9 -28 -20 -42 -18 -23 -18 -28 -5 -79 8 -30 15 -55 15 -56 0 -2 -9 -3 -19 -3 -15 0 -22 12 -31 49 -10 42 -16 51 -40 56 -15 3 -34 14 -42 23 -8 9 -36 98 -63 198 -42 162 -50 183 -74 197 -15 9 -35 33 -44 54 -13 31 -267 978 -267 998 0 3 -49 5 -110 5 l-109 0 -3 -111 c-3 -94 -6 -114 -20 -123 -13 -8 -23 -8 -35 0 -15 9 -18 29 -21 123 l-3 111 -109 0 c-61 0 -110 -2 -110 -4 0 -24 -383 -1402 -395 -1419 -17 -27 -46 -43 -91 -52 -27 -5 -33 -12 -44 -51 -12 -43 -33 -65 -47 -50 -4 3 0 28 9 54 l15 48 -38 36 c-58 56 -58 77 0 289 27 101 87 321 132 489 45 168 103 384 129 480 l47 175 -128 3 c-125 3 -128 2 -153 -23 -56 -56 -156 -14 -156 65 0 83 104 122 158 60 l26 -30 137 0 136 0 32 118 c17 64 60 224 96 356 l64 238 -29 37 c-16 20 -41 63 -57 96 -24 54 -27 71 -28 175 0 112 1 117 36 191 64 133 175 223 311 251 l58 12 0 41 c0 35 -4 43 -30 58 -43 26 -52 74 -48 252 2 125 6 156 21 179 21 32 73 58 102 51 11 -3 25 -5 32 -5z"/><path d="M2425 3710 c-75 -29 -148 -99 -187 -177 -29 -60 -32 -75 -32 -152 1 -67 6 -98 24 -139 l23 -53 26 31 c65 77 183 65 225 -23 22 -47 20 -76 -9 -181 l-24 -89 25 23 c32 31 84 31 123 3 l29 -22 -24 87 c-33 121 -32 162 7 206 59 68 175 61 213 -11 l14 -27 23 45 c21 38 24 58 24 149 0 94 -3 110 -27 155 -52 99 -157 180 -250 192 -35 5 -37 4 -40 -28 -2 -27 -8 -35 -27 -37 -26 -4 -41 12 -41 46 0 28 -26 28 -95 2z"/><path d="M2445 2828 c-7 -31 -109 -412 -121 -450 -5 -16 4 -18 95 -18 l101 0 0 115 c0 99 2 116 18 123 19 10 43 5 54 -12 4 -6 8 -59 8 -118 l0 -108 99 0 99 0 -10 38 c-6 20 -37 134 -68 252 -51 189 -59 212 -68 189 -14 -36 -49 -59 -90 -59 -43 0 -69 14 -92 52 l-18 30 -7 -34z"/></g>
<g fill="#f44f37" stroke="none" transform="translate(0.000000,1024.000000) scale(0.100000,-0.100000)"><path d="M2285 4898 c-311 -35 -683 -165 -955 -333 -220 -137 -472 -361 -622 -555 -256 -331 -417 -712 -480 -1135 -20 -136 -17 -512 5 -655 103 -665 471 -1245 1027 -1616 287 -191 623 -320 966 -371 164 -24 504 -24 668 0 411 61 815 237 1136 494 459 368 764 897 857 1485 25 159 25 537 0 696 -83 524 -329 995 -708 1356 -370 352 -861 581 -1361 635 -114 13 -419 12 -533 -1z m312 -488 c6 0 25 -14 42 -31 l31 -31 0 -185 0 -186 -40 -38 c-31 -30 -40 -46 -40 -72 0 -32 1 -33 62 -46 89 -18 165 -60 229 -128 67 -70 94 -119 115 -210 29 -122 4 -247 -71 -360 l-35 -53 90 -338 c50 -185 93 -345 96 -354 5 -16 21 -18 144 -18 l138 0 30 30 c22 22 40 30 65 30 77 0 118 -100 62 -155 -34 -35 -93 -34 -125 0 -23 24 -27 25 -158 25 l-134 0 6 -27 c4 -16 59 -220 122 -455 63 -235 114 -446 114 -467 0 -22 -5 -51 -11 -64 -9 -20 -3 -56 35 -197 25 -95 46 -180 46 -190 0 -9 -9 -28 -20 -42 -18 -23 -18 -28 -5 -79 8 -30 15 -55 15 -56 0 -2 -9 -3 -19 -3 -15 0 -22 12 -31 49 -10 42 -16 51 -40 56 -15 3 -34 14 -42 23 -8 9 -36 98 -63 198 -42 162 -50 183 -74 197 -15 9 -35 33 -44 54 -13 31 -267 978 -267 998 0 3 -49 5 -110 5 l-109 0 -3 -111 c-3 -94 -6 -114 -20 -123 -13 -8 -23 -8 -35 0 -15 9 -18 29 -21 123 l-3 111 -109 0 c-61 0 -110 -2 -110 -4 0 -24 -383 -1402 -395 -1419 -17 -27 -46 -43 -91 -52 -27 -5 -33 -12 -44 -51 -12 -43 -33 -65 -47 -50 -4 3 0 28 9 54 l15 48 -38 36 c-58 56 -58 77 0 289 27 101 87 321 132 489 45 168 103 384 129 480 l47 175 -128 3 c-125 3 -128 2 -153 -23 -56 -56 -156 -14 -156 65 0 83 104 122 158 60 l26 -30 137 0 136 0 32 118 c17 64 60 224 96 356 l64 238 -29 37 c-16 20 -41 63 -57 96 -24 54 -27 71 -28 175 0 112 1 117 36 191 64 133 175 223 311 251 l58 12 0 41 c0 35 -4 43 -30 58 -43 26 -52 74 -48 252 2 125 6 156 21 179 21 32 73 58 102 51 11 -3 25 -5 32 -5z"/><path d="M2425 3710 c-75 -29 -148 -99 -187 -177 -29 -60 -32 -75 -32 -152 1 -67 6 -98 24 -139 l23 -53 26 31 c65 77 183 65 225 -23 22 -47 20 -76 -9 -181 l-24 -89 25 23 c32 31 84 31 123 3 l29 -22 -24 87 c-33 121 -32 162 7 206 59 68 175 61 213 -11 l14 -27 23 45 c21 38 24 58 24 149 0 94 -3 110 -27 155 -52 99 -157 180 -250 192 -35 5 -37 4 -40 -28 -2 -27 -8 -35 -27 -37 -26 -4 -41 12 -41 46 0 28 -26 28 -95 2z"/><path d="M2445 2828 c-7 -31 -109 -412 -121 -450 -5 -16 4 -18 95 -18 l101 0 0 115 c0 99 2 116 18 123 19 10 43 5 54 -12 4 -6 8 -59 8 -118 l0 -108 99 0 99 0 -10 38 c-6 20 -37 134 -68 252 -51 189 -59 212 -68 189 -14 -36 -49 -59 -90 -59 -43 0 -69 14 -92 52 l-18 30 -7 -34z"/></g>
</svg>